<svg width="32" height="32" viewBox="0 0 32 32" fill="none" xmlns="http://www.w3.org/2000/svg">
<g clip-path="url(#clip0_5_28)">
<path d="M12.9145 14.9274C12.9145 14.9274 15.9426 14.7024 15.9426 11.1513C15.9426 7.59999 13.465 5.86697 10.3268 5.86697H4.5502H4.38049H0V25.7127H4.38049H4.5502H10.3268C10.3268 25.7127 16.6309 25.9114 16.6309 19.8551C16.6309 19.8551 16.9061 14.9274 12.9145 14.9274ZM4.5502 9.39409H9.58345H10.3268C10.3268 9.39409 11.7307 9.39409 11.7307 11.4588C11.7307 13.5235 10.9048 13.8228 9.96889 13.8228H4.5502V9.39409ZM10.0605 22.1856H4.5502V16.882H10.3268C10.3268 16.882 12.4189 16.8545 12.4189 19.6073C12.4189 21.9026 10.8886 22.1625 10.0605 22.1856Z" fill="white"/>
<path d="M25.0387 10.9161C17.407 10.9161 17.4139 18.541 17.4139 18.541C17.4139 18.541 16.8902 26.1274 25.0389 26.1274C25.0389 26.1274 31.8297 26.5153 31.8297 20.85H28.3373C28.3373 20.85 28.4536 22.9839 25.1553 22.9839C25.1553 22.9839 21.6628 23.2175 21.6628 19.5308H31.9461C31.9461 19.5308 33.0711 10.9161 25.0387 10.9161ZM28.143 16.882H21.6239C21.6239 16.882 22.0507 13.8228 25.1163 13.8228C28.182 13.8228 28.143 16.882 28.143 16.882Z" fill="white"/>
<path d="M28.9571 7H20.7694V9H28.9571V7Z" fill="white"/>
</g>
<defs>
<clipPath id="clip0_5_28">
<rect width="32" height="32" fill="white"/>
</clipPath>
</defs>
</svg>
