<svg width="512" height="512" viewBox="0 0 512 512" fill="none" xmlns="http://www.w3.org/2000/svg">
<g clip-path="url(#clip0_7_6)">
<rect width="512" height="512" fill="white"/>
<path d="M47.5903 460.772C43.5272 462.45 39.7026 464.366 35.6395 466.044C32.2928 467.482 29.1859 468.681 25.6005 470.358C7.91339 478.027 1.94331 476.841 -1.15967 475.173C-2.8301 473.981 -4.25999 471.594 -4.49519 468.967C-4.48986 465.145 -2.57422 461.798 0.53476 459.166C5.55671 455.098 10.0949 455.331 13.4371 456.76C14.8696 457.235 16.0643 456.995 17.0211 456.038L44.3102 414.914C45.2677 413.479 44.7926 411.569 43.5992 410.854C33.0983 404.18 22.1103 404.196 18.5269 404.439C13.7488 404.924 8.73151 405.648 3.7129 407.327C-6.08512 410.446 -16.125 415.715 -25.6909 423.372C-41.4737 435.816 -52.2459 452.313 -55.8526 469.277C-57.2939 475.012 -57.7796 480.746 -57.3099 486.478C-57.0767 490.539 -54.2389 511.077 -37.7725 522.281C-26.5566 530.148 -11.0317 531.321 7.84602 526.278C8.32376 526.278 9.04069 526.038 9.27989 525.799L9.75764 525.798C13.3424 524.599 16.9271 523.399 20.751 521.961C26.0088 520.042 31.0274 518.363 34.8514 516.925L35.3291 516.924C54.9265 509.731 59.7045 509.246 64.4766 513.062C66.6241 514.731 68.054 517.117 67.8115 519.745C67.8075 522.612 66.6074 526.674 60.6293 531.221C57.9988 533.374 52.2625 535.771 46.2924 534.585C45.0984 534.348 43.6645 534.828 43.1855 535.784L15.8956 577.863C14.9381 579.298 15.6517 581.446 17.3228 582.161C29.7374 586.921 42.1566 588.337 54.5812 585.931C65.3347 582.81 76.5699 576.823 87.57 568.208C91.1567 565.576 94.2663 562.466 97.1368 559.596C118.905 537.828 126.825 510.824 118.498 487.188C115.641 480.503 112.066 474.537 107.773 469.765C89.1704 448.771 59.5398 456.456 47.5903 460.772ZM228.352 363.975L184.384 375.98C183.189 376.22 182.231 377.655 182.468 379.327C185.553 393.894 182.19 407.275 172.622 416.843C163.054 426.411 150.388 430.49 137.968 429.552C128.175 429.326 118.387 425.279 110.992 417.885C103.359 410.251 99.5502 400.702 99.0865 390.67C98.1483 378.25 102.465 365.823 112.034 356.255C121.602 346.687 134.745 343.085 149.55 346.409C150.983 346.407 152.418 345.449 152.658 344.255L157.22 327.766L164.903 299.569C165.143 298.374 164.429 297.181 163.234 296.944C160.13 296.231 157.264 295.758 154.399 295.284C151.533 294.81 148.666 294.814 145.561 294.58C145.561 294.58 145.323 294.341 145.084 294.58C143.89 294.343 142.456 294.345 141.262 294.586C141.023 294.347 140.784 294.586 140.545 294.348C139.351 294.588 138.395 294.59 136.962 294.592C136.484 294.592 135.767 294.832 135.051 294.594C134.573 294.595 134.096 294.596 133.618 294.596C115.7 296.293 98.4923 303.006 83.9062 313.775C83.4278 314.254 82.9494 314.732 82.471 315.21C81.9926 315.689 81.2756 315.929 80.7972 316.407C79.8404 317.364 79.1228 318.082 77.9274 318.8C77.6882 319.039 77.449 319.278 77.2098 319.517C76.253 320.474 75.057 321.67 74.1002 322.627C37.0236 359.704 36.7016 419.183 73.1978 455.679C109.455 491.936 168.934 491.615 206.011 454.538C206.968 453.581 208.164 452.385 209.121 451.428C209.36 451.189 209.599 450.95 209.838 450.711C210.795 449.754 211.274 448.798 212.231 447.841C212.709 447.362 213.188 446.884 213.428 446.167C213.906 445.689 214.384 445.21 214.863 444.732C225.632 430.146 232.345 412.938 234.042 395.02C234.043 394.542 234.043 394.065 234.044 393.587C234.045 393.109 234.046 392.154 234.047 391.676C234.287 390.481 234.05 389.287 234.29 388.093C234.052 387.854 234.291 387.615 234.291 387.615C234.293 386.182 234.296 384.271 234.297 383.315C234.059 383.077 234.059 383.077 234.059 383.077C234.063 380.21 233.828 377.105 233.354 374.239C233.118 372.568 232.406 368.986 231.932 366.12C231.457 364.687 230.025 363.734 228.352 363.975ZM194.295 206.249C186.161 214.86 177.308 225.621 174.184 239.241C173.943 240.436 172.509 240.916 171.794 240.2L168.216 236.622C167.023 235.429 165.112 235.432 164.155 236.389L128.753 271.791C127.557 272.987 127.793 274.659 128.986 275.851L251.117 397.982C252.071 398.936 253.743 399.173 254.939 397.977L292.733 360.183C293.69 359.226 293.693 357.315 292.738 356.361L221.654 285.277C216.884 280.506 212.829 276.451 210.688 270.004C209.736 267.617 208.789 261.408 212.38 255.909C215.492 250.888 222.906 244.428 226.493 241.318C227.689 240.122 227.93 238.45 226.738 237.257L198.355 206.482C197.402 205.05 195.491 205.053 194.295 206.249ZM301.259 99.2852L263.704 136.84C262.508 138.036 262.505 139.947 263.698 141.14L332.635 210.077C337.406 214.848 343.369 220.811 345.749 227.018C347.891 232.987 345.013 241.113 337.597 248.528C333.77 252.355 329.706 254.511 325.406 254.995C322.778 255.237 320.151 255.002 317.286 254.05C311.078 251.67 305.591 246.662 300.821 241.891L231.884 172.954C230.691 171.761 228.78 171.764 227.823 172.721L190.029 210.515C188.833 211.711 189.069 213.383 190.262 214.575L261.108 285.421C279.713 304.027 292.362 312.369 317.921 312.573L318.16 312.333C319.832 312.57 321.743 312.567 323.415 312.326C323.893 312.325 347.545 309.187 365.007 291.725C372.901 283.831 379.605 272.834 382.492 258.02C382.493 257.065 383.927 256.585 384.643 257.301L388.221 260.879C389.175 261.833 391.086 261.83 392.282 260.634L427.445 225.471C428.641 224.275 428.643 222.364 427.689 221.41L305.558 99.2791C304.366 98.0865 302.455 98.0892 301.259 99.2852ZM354.762 30.0385L359.068 25.7328C360.025 24.776 360.266 23.1035 359.312 22.1494L334.273 -8.62984C333.081 -9.82252 331.17 -9.81984 329.974 -8.62383L310.12 11.2301C309.88 11.4693 307.967 12.9052 305.336 16.0142C296.005 26.2986 277.335 53.5558 305.244 81.4646L320.272 96.4924C321.226 97.4466 321.223 99.3575 320.267 100.314L307.11 113.471C305.914 114.667 306.151 116.338 307.105 117.292L336.922 147.11C338.115 148.302 339.787 148.539 340.983 147.343L354.139 134.187C355.096 133.23 356.768 132.989 357.961 134.181L429.522 205.742L436.439 212.66C437.393 213.614 439.304 213.611 440.5 212.415L475.663 177.252C476.859 176.056 476.862 174.145 475.908 173.191L397.429 94.7126C396.237 93.5199 396.478 91.8475 397.435 90.8907L410.591 77.7345C411.787 76.5385 411.79 74.6275 410.597 73.4348L380.78 43.6177C379.826 42.6636 377.915 42.6662 376.719 43.8623L363.563 57.0185C362.606 57.9753 360.695 57.9779 359.741 57.0238C355.447 52.7301 349.722 47.0053 349.731 40.7946C349.736 36.9727 351.413 33.3873 354.762 30.0385ZM421.879 -37.0789L426.185 -41.3846C427.142 -42.3414 427.383 -44.0138 426.429 -44.9679L401.391 -75.7472C400.198 -76.9398 398.287 -76.9372 397.091 -75.7412L377.237 -55.8873C376.998 -55.6481 375.085 -54.2122 372.453 -51.1032C363.123 -40.8188 344.453 -13.5615 372.361 14.3472L387.389 29.3751C388.343 30.3292 388.341 32.2402 387.384 33.197L374.228 46.3532C373.032 47.5492 373.268 49.221 374.222 50.1751L404.039 79.9922C405.232 81.1849 406.904 81.4214 408.1 80.2254L421.256 67.0692C422.213 66.1124 423.885 65.8712 425.078 67.0639L496.639 138.625L503.557 145.542C504.511 146.497 506.422 146.494 507.618 145.298L542.781 110.135C543.977 108.939 543.979 107.028 543.025 106.074L464.547 27.5953C463.354 26.4026 463.595 24.7301 464.552 23.7733L477.708 10.6171C478.904 9.42109 478.907 7.51015 477.714 6.31746L447.897 -23.4996C446.943 -24.4538 445.032 -24.4511 443.836 -23.2551L430.68 -10.0989C429.723 -9.14207 427.812 -9.13938 426.858 -10.0935C422.564 -14.3872 416.839 -20.1121 416.848 -26.3227C416.853 -30.1447 418.531 -33.7301 421.879 -37.0789Z" fill="#1C1D21"/>
</g>
<defs>
<clipPath id="clip0_7_6">
<rect width="512" height="512" fill="white"/>
</clipPath>
</defs>
</svg>
