<svg width="167" height="68" viewBox="0 0 167 68" fill="none" xmlns="http://www.w3.org/2000/svg">
<path d="M18.6459 35.9585C18.9485 35.9299 19.1617 35.6049 19.2379 35.4452C19.5567 33.6793 19.4515 33.5371 20.0037 31.6573C20.602 29.621 21.0361 27.7828 21.6617 25.7135C21.7566 25.4301 21.8126 25.0596 21.9681 24.7705C21.9536 24.6198 22.0444 24.6112 22.0572 24.427L23.8984 18.8005C24.0394 18.3607 24.153 17.9544 24.33 17.5717L24.905 17.517L25.0837 17.4692L25.4801 17.4618L57.5298 14.3984C57.681 14.3841 57.8628 14.3666 57.9865 14.3854L58.3773 14.3176L58.501 14.336L61.679 14.0324L62.3779 13.996L62.6474 13.9398L63.2553 13.9121C63.3766 13.9006 63.4974 13.889 63.6215 13.9076C63.7698 13.863 63.8911 13.8514 64.0119 13.8398C64.1664 13.8555 64.4994 13.8237 64.6505 13.8092L65.3437 13.7125C65.6492 13.7138 65.8033 13.7295 66.0757 13.7034C67.5889 13.5588 66.7721 13.6369 68.3787 13.5138C68.6236 13.5208 68.6871 13.5452 68.8989 13.5249C69.2319 13.4931 69.4597 13.3191 69.4552 12.9541C69.4433 12.8335 69.3712 12.7185 69.3049 12.664C69.1996 12.5218 69.1029 12.4702 68.8911 12.4904C67.2079 12.7731 67.2685 12.7673 66.0278 12.8859C64.8808 13.026 65.4858 12.9681 64.3663 13.0752L64.127 13.1285L63.7305 13.1359C63.461 13.1921 63.4339 13.2252 63.1009 13.257C58.8337 13.6649 60.4677 13.5087 55.5406 14.0405L55.1228 14.1414L54.5144 14.169L49.7053 14.659L38.5682 15.7237C35.2695 16.039 33.9018 16.1088 30.6333 16.4212L30.4185 16.4114L30.0582 16.4764L29.8435 16.4662L24.5718 16.9093C24.5514 16.6981 24.7127 16.4694 24.7558 16.2828C25.5904 14.1628 26.1916 12.1565 27.209 9.7147C27.3371 9.45884 27.3744 9.21168 27.5054 8.986C27.658 8.66692 27.7645 8.5045 27.7931 8.16683C27.7525 7.74439 27.4051 7.62538 27.042 7.6601L26.9267 7.73197C26.5117 7.86299 26.3823 8.42347 26.2658 8.80001C26.0428 9.33897 25.85 9.87504 25.6601 10.4413C24.6157 13.5556 24.5167 14.1132 23.5125 17.0105C23.4246 17.0493 23.3036 17.0608 23.1825 17.0726L21.5785 17.2258L20.7945 17.3311L20.4285 17.3356C19.3995 17.4341 19.4269 17.401 18.5492 17.4851L18.3647 17.472L16.9149 17.6411L16.7607 17.6256L16.6123 17.6701C16.4883 17.6513 16.337 17.666 16.1857 17.6803L14.9722 17.7661C14.9117 17.7718 14.8511 17.7775 14.7936 17.8135C14.7301 17.789 14.488 17.8122 14.3064 17.8298L12.0942 18.0107C11.7858 17.9793 11.6863 17.8972 11.4052 17.8327C10.4322 17.5607 9.2316 17.4622 8.24282 17.3434C8.17941 17.3189 8.08859 17.3279 8.02809 17.3336C7.6649 17.3683 6.73379 17.2135 6.18901 17.2658C6.09824 17.2744 6.00742 17.2829 5.91374 17.2617L3.43497 17.5288C2.70864 17.5982 2.28786 17.6689 1.58183 17.9499L1.40024 17.967C0.988152 18.1283 0.479467 18.2378 0.197136 18.4779C0.00269713 18.6793 -0.00145254 18.9537 0.000198301 19.2882C0.029213 19.59 0.327704 19.8354 0.484829 19.8816C1.53992 20.0547 1.28911 19.9874 2.54154 19.9894L3.05311 19.9102L3.63103 19.8853L3.68866 19.8493L3.98839 19.7901C5.01741 19.6917 4.47263 19.7439 5.5261 19.5822L6.94848 19.4462C7.30585 19.3515 7.0969 19.4017 7.48745 19.3339L9.00065 19.1893L9.17933 19.142L10.1175 19.0521L10.6291 18.9729C11.7907 18.9835 12.1614 19.3441 13.3363 19.8101C14.3325 20.3239 15.4008 20.9528 16.1205 21.7667C17.3191 23.114 17.8012 24.3164 18.2609 26.556L18.2626 26.8909L18.3102 27.069L18.3828 27.8233C18.3886 27.8837 18.3915 27.9139 18.3641 27.947L18.4176 28.1855L18.389 28.5233C18.4221 28.5502 18.4279 28.6107 18.4309 28.6409C18.3836 29.102 18.3852 29.4368 18.4288 29.8893C18.3848 31.0202 18.4254 31.4429 18.1928 32.8351L18.2044 32.956C18.0664 33.4257 18.1315 33.785 17.9992 34.3151C17.9403 34.6557 17.8512 34.9992 17.8802 35.301C17.9179 35.6935 18.1227 35.9173 18.6459 35.9585ZM19.721 29.035L19.6907 29.0382L19.7077 28.5796L19.6468 27.9462C19.6236 27.7048 19.5975 27.4332 19.6103 27.2491L19.5685 27.1314L19.5366 26.7994C19.525 26.6789 19.5162 26.5883 19.4773 26.5009C19.4105 25.8066 19.2779 25.6976 19.214 25.0339C18.5122 22.8171 17.8783 20.99 14.8607 19.1469C14.3777 18.8884 14.3172 18.8945 13.8674 18.6633L13.8645 18.6331C14.9813 18.4959 16.0982 18.3587 17.2785 18.2459L23.0892 17.6905L23.2737 17.7032C23.2853 17.8241 23.2306 17.8902 23.209 17.9833C23.1083 18.2063 23.0407 18.4563 22.9702 18.6764L22.4582 20.339C21.5187 22.956 20.9582 25.3847 19.954 28.2823C19.908 28.4387 19.9225 28.5898 19.8736 28.716C19.7973 28.8757 19.7641 28.8483 19.721 29.035ZM13.1918 32.9172L13.4281 32.8339L13.7278 32.7747C13.7883 32.769 13.846 32.733 13.8733 32.6999C14.6457 32.4741 15.0404 32.1319 15.5719 31.6242C15.6569 31.5552 15.6755 31.4314 15.7605 31.3624C15.8152 31.2963 15.9305 31.2244 15.9823 31.128C16.0226 30.9112 15.9678 30.9773 16.1378 30.8393C16.217 30.7098 16.2025 30.5591 16.2543 30.4627C16.2787 30.3994 16.3637 30.3304 16.3882 30.2671C16.3447 29.8146 16.411 29.8693 16.4193 29.3204L16.3397 28.8104C16.3194 28.5992 16.2257 28.5776 16.2025 28.3362L15.8605 27.6383C15.7884 27.5231 15.5114 27.1841 15.5085 27.1539C15.5243 27.0003 15.664 26.8652 15.7158 26.7688C16.407 25.698 16.0139 26.3751 16.875 25.1662C16.9239 25.0396 16.9728 24.913 17.0578 24.844C17.3286 24.4834 17.4235 24.2 17.7332 23.9267C17.8613 23.6711 18.086 23.4669 18.1868 23.2443C18.6979 22.5255 18.7137 22.3716 19.2336 21.7435C19.3949 21.5148 19.7564 21.1452 19.8513 20.8621C19.9247 20.6726 20.125 20.5317 20.1681 20.3447C20.4574 19.8603 20.8679 19.3645 21.1543 18.85C21.3546 18.7087 21.2883 18.6543 21.5345 18.3566C21.6353 18.134 21.5171 18.1757 21.7232 18.0952C22.2717 17.129 22.9831 16.2693 23.4984 15.2761C23.52 15.183 23.6352 15.1111 23.6871 15.0147C23.9677 14.4397 24.4516 13.754 24.8172 13.1101C24.8662 12.9836 24.9814 12.9117 25.0303 12.7852C25.4636 11.8912 26.0871 11.0704 26.5233 10.2065C26.6543 9.98085 26.8242 9.84281 26.8976 9.65311C27.1049 9.26787 27.4076 9.23896 27.3582 8.72601C27.3019 8.45737 27.0365 8.23912 26.7036 8.27097L26.5855 8.31271C26.192 8.35029 26.2658 8.80001 26.1651 9.02279L25.7737 10.0346C25.7003 10.2243 25.6211 10.3536 25.5117 10.4859C25.3836 10.7418 25.3131 10.9617 25.2455 11.2117C24.35 12.698 24.605 12.4909 24.0262 13.4597C23.9744 13.556 23.8621 13.6581 23.8376 13.7214L23.554 14.2661C23.5022 14.3625 23.3869 14.4344 23.3654 14.5279C23.2128 14.8469 23.1452 15.0968 22.8629 15.3369C22.7679 15.62 22.68 15.6592 22.4943 15.9508C22.3418 16.2697 22.0984 16.5977 21.9184 16.9497C21.7514 17.118 21.77 16.9942 21.7298 17.2115C20.9263 18.3844 20.5205 19.2453 19.5354 20.4358C19.3526 20.7576 19.1034 21.0251 18.8903 21.3498C18.3273 22.1649 17.9111 22.6007 17.3294 23.5392C16.8008 24.077 16.4439 24.8113 15.9153 25.3492C15.6934 25.5836 15.5683 25.8695 15.3767 26.1011C15.2917 26.1701 15.2428 26.2963 15.1275 26.3686C15.1304 26.3984 15.1304 26.3984 15.1002 26.4016C15.0973 26.3714 15.0973 26.3714 15.067 26.3743C14.9327 25.9303 14.9228 26.1443 14.8792 25.6918C14.8473 25.3598 14.9091 25.0494 14.9796 24.8297C15.3623 23.7275 16.4252 22.7122 17.3904 21.9501L16.3651 21.1345C15.9344 21.4192 15.4 21.8966 14.9622 22.4259C14.0045 23.5829 13.4689 24.365 13.4539 25.7976C13.4929 25.885 13.5319 25.9728 13.5406 26.0635C13.5899 26.5764 13.7068 26.839 13.8958 27.2168C13.9074 27.3377 14.0762 27.5043 14.0994 27.7457L13.0223 29.249C12.4593 30.0641 12.3959 30.04 11.8619 31.1566L11.7872 31.6508C11.8743 32.5562 12.033 32.9368 12.941 32.8498L13.1918 32.9172ZM13.1649 31.3669L13.1288 31.3097C13.1085 31.0982 13.264 30.8095 13.4008 30.6441C13.5662 30.1413 13.8311 29.7199 14.06 29.2412C14.2212 29.0129 14.4157 28.8116 14.5467 28.5857C14.698 28.5714 14.6217 28.7307 14.7631 28.9304L14.8671 29.3772C14.9368 30.1013 14.3779 30.642 13.9803 30.954C13.7254 31.1611 13.5827 31.266 13.1649 31.3669ZM7.39749 18.3987L6.90748 18.3844L3.54525 18.6756L3.54234 18.6454C3.9963 18.6021 4.20235 18.5212 4.44449 18.4983C5.49791 18.3366 4.98341 18.3856 5.46473 18.3092L6.40874 18.2798C6.83825 18.2999 7.05589 18.3399 7.69144 18.279L7.69431 18.3092L7.39749 18.3987ZM25.2236 29.0877C25.3145 29.0791 25.4326 29.0374 25.4902 29.0015L25.7871 28.912C25.875 28.8733 25.9297 28.8071 25.9873 28.7712L26.251 28.6548C26.3057 28.5886 26.3575 28.4922 26.4152 28.4563L26.8372 28.081L26.9164 27.9515C27.1987 27.7114 27.5271 27.3148 27.7099 26.9926L27.8741 26.7941C27.9504 26.6348 28.0901 26.4997 28.1966 26.3371C28.3824 26.0455 28.5681 25.7535 28.787 25.4889L28.8173 25.486C28.8405 25.7274 28.7671 25.9173 28.7269 26.1341L28.7385 26.255C28.7256 26.4388 28.7186 26.683 28.7389 26.8942L28.8069 27.2838L28.8575 27.4921C28.9354 27.6673 29.2065 27.9458 29.3637 27.9915C29.4573 28.0132 29.5179 28.0075 29.6087 27.9989C29.6721 28.023 29.796 28.0418 29.8869 28.0332L29.9776 28.0242C30.2139 27.9409 30.4776 27.8245 30.675 27.6534C31.0149 27.3773 31.2886 27.0465 31.5953 26.7431L31.7322 26.5777C31.8416 26.4453 31.951 26.3134 32.0937 26.2085L32.3067 25.8834C32.5041 25.7123 32.6653 25.4836 32.8295 25.2855C32.8843 25.2193 32.939 25.1532 32.9634 25.0899C33.1882 24.8857 33.4042 24.5908 33.5928 24.3294L33.7354 24.2245L33.8146 24.095L34.009 23.8937C34.1732 23.6952 34.3374 23.4971 34.5347 23.326C34.6471 23.2239 34.6902 23.0369 34.8026 22.9348C34.9149 22.8327 35.0575 22.7277 35.1396 22.6285C35.1641 22.5652 35.1827 22.4418 35.1711 22.3209L35.1206 22.1126C35.0181 22.0007 34.8279 21.9276 34.6463 21.9448C34.5857 21.9505 34.5252 21.9566 34.4676 21.9926C34.3826 22.0616 34.3308 22.158 34.2487 22.2568C34.0845 22.4553 33.9174 22.6236 33.7835 22.8192C33.5373 23.1165 33.3213 23.4114 33.0418 23.6817L32.9929 23.8083L32.6861 24.1113C32.6314 24.1775 32.5767 24.2437 32.5522 24.307L32.1907 24.6766L32.0294 24.9053C31.7471 25.1454 31.534 25.4701 31.2516 25.7102C30.9996 25.9475 30.808 26.1791 30.5531 26.3861L30.3773 26.4637C30.3499 26.4968 30.3255 26.5601 30.2952 26.5629C30.1829 26.665 30.0647 26.7067 29.9826 26.8059L29.8587 26.7872L29.8442 26.6365C29.8035 26.2142 29.93 25.6232 29.9918 25.3128L30.2405 24.4062C30.3052 24.126 30.4304 23.8398 30.5283 23.587C30.7426 22.9576 30.9599 22.3581 31.2132 21.8162C31.265 21.7202 31.2592 21.6597 31.2807 21.5662L31.4304 21.217L31.374 20.9483C31.221 20.6281 31.0494 20.4313 30.6531 20.4386L30.5047 20.4836C30.3592 20.5583 30.1921 20.7265 30.11 20.8254C30.0582 20.9218 30.064 20.9822 30.0424 21.0757L29.9388 21.2681C29.8683 21.4882 29.8612 21.7324 29.7273 21.9281C29.3948 22.5991 28.996 23.2157 28.6303 23.8598C28.3928 24.2477 28.0889 24.5814 27.8513 24.9694L27.6598 25.2009C27.5532 25.3635 27.4438 25.4958 27.3041 25.631L27.1428 25.8593C27.0031 25.9945 26.8663 26.1599 26.6963 26.2979L26.6473 26.4245L26.0827 26.9048L26.0006 27.0036C25.8307 27.1421 25.6607 27.2801 25.4878 27.3879C25.3999 27.4267 25.2817 27.4684 25.227 27.5345L25.0757 27.5488L25.028 27.3708C25.0135 27.2201 25.0264 27.0359 25.0479 26.9428L25.0247 26.7014L25.1541 26.1407C25.2648 25.7041 25.315 25.2728 25.4588 24.8632L25.5782 24.5169C25.7034 24.231 25.7652 23.9206 25.9236 23.6617C25.9177 23.6013 25.9422 23.538 25.9667 23.4751L26.1711 23.0593C26.22 22.9331 26.3021 22.8339 26.3207 22.7101L26.3697 22.5839C26.3912 22.4904 26.4762 22.4214 26.4978 22.3279L26.5077 22.1139C26.4758 21.7818 26.2407 21.5609 26.0202 21.4907C25.8933 21.4417 25.8026 21.4506 25.7117 21.4592C25.1973 21.5082 24.9916 22.2282 24.8751 22.6048C24.6148 23.3909 24.327 24.2102 24.1272 24.9906C23.9705 25.584 23.9045 26.1689 23.781 26.7896C23.7378 26.9767 23.7395 27.3111 23.7714 27.6432C23.8063 28.0054 23.8713 28.3644 24.0069 28.5037C24.1151 28.676 24.2867 28.8728 24.4799 28.9762C24.5765 29.0276 24.6644 28.9888 24.8215 29.035L25.1329 29.0962L25.2236 29.0877ZM37.2691 33.0213C37.602 32.9899 37.7173 32.9176 37.9146 32.7465C38.4548 32.3295 38.9531 31.7949 39.2943 31.2142C39.4038 31.0819 39.5434 30.9467 39.62 30.787C39.8572 30.399 40.1279 30.0384 40.3352 29.6529L40.5818 29.3556C40.7891 28.97 41.0566 28.5792 41.2639 28.1941C41.3188 28.1279 41.313 28.0675 41.3376 28.0042L41.6629 27.5774L42.2847 26.4216L42.6288 25.8711C42.8361 25.486 43.013 25.1037 43.2236 24.7484L43.7229 23.9092C43.8237 23.6862 43.9576 23.491 44.0613 23.2982C44.0613 23.2982 44.9527 22.0865 45.0534 21.8635C45.105 21.7676 45.0964 21.6769 45.0878 21.5862C45.0645 21.3449 44.9232 21.1452 44.7601 21.039C44.6667 21.0177 44.5729 20.9961 44.482 21.0047C44.3005 21.0222 44.0973 21.1329 44.0154 21.2321C43.9605 21.2983 43.9421 21.4216 43.8901 21.518L42.8692 23.2905C41.9611 24.9608 41.0799 26.5977 40.1054 28.2133C40.0808 28.2766 39.996 28.3456 39.944 28.442C39.6577 28.9566 39.3076 29.4466 39.0211 29.9612L38.8267 30.1626L38.4855 30.7433C38.3761 30.8756 38.2637 30.9777 38.1845 31.1072C38.0174 31.2754 37.9167 31.498 37.7496 31.6663C37.607 31.7712 37.4976 31.9036 37.4184 32.033L37.2944 32.0142C37.2393 31.4408 37.3197 31.0071 37.3972 30.5428L37.3798 30.3619L37.4445 30.0817C37.4661 29.9882 37.4603 29.9277 37.4516 29.8375C37.4789 29.8044 37.5337 29.7382 37.5278 29.6778C37.5494 29.5843 37.5407 29.494 37.5349 29.4336C37.5565 29.3401 37.6112 29.2739 37.6357 29.2106L37.6212 29.0599C37.6427 28.9664 37.6974 28.9002 37.6887 28.8099C37.7132 28.7466 37.7074 28.6862 37.7016 28.6258L37.8052 28.4334L37.7907 28.2823L37.8886 28.0295L37.877 27.9086C37.8985 27.8155 37.9562 27.7796 37.9503 27.7191C37.9748 27.6558 37.9661 27.5652 37.9603 27.5051L38.0668 27.3426L38.0768 27.1286L38.1718 26.8452L38.163 26.7549C38.163 26.7549 38.2207 26.719 38.2178 26.6887L38.2277 26.4747C38.2551 26.4417 38.3127 26.4057 38.3069 26.3453L38.3471 26.128C38.3442 26.0982 38.3989 26.032 38.4263 25.999L38.406 25.7878C38.4333 25.7547 38.491 25.7188 38.4881 25.6886C38.5096 25.5951 38.5038 25.5346 38.498 25.4742L38.6075 25.3423C38.6017 25.2818 38.5959 25.2214 38.6203 25.1581C38.6145 25.0976 38.6722 25.0617 38.6966 24.9988L38.6821 24.8477C38.7066 24.7844 38.7642 24.7484 38.7613 24.7182C38.7858 24.6553 38.7799 24.5949 38.7742 24.5344L38.8807 24.3719L38.8662 24.2212L38.9698 24.0284L38.9827 23.8447C38.9827 23.8447 39.0403 23.8087 39.0374 23.7785C39.0619 23.7152 39.0561 23.6548 39.0503 23.5947C39.0776 23.5616 39.1353 23.5257 39.1295 23.4653C39.1568 23.4322 39.151 23.3717 39.1452 23.3113L39.2244 23.1822L39.2617 22.9348L39.2891 22.9017C39.413 22.9205 39.4189 22.9809 39.4881 23.0654C39.5848 23.1173 39.7777 23.2206 39.9596 23.2031L40.1079 23.1586C40.402 23.0389 40.5023 22.8163 40.4765 22.5447C40.4503 22.2731 40.2643 21.9256 40.1169 21.6655C40.0419 21.5205 40.0304 21.4 39.9006 21.3208C39.8801 21.1096 39.9956 21.0377 40.0718 20.8781C40.2332 20.6498 40.3942 20.4211 40.5224 20.1654C40.76 19.777 40.9976 19.389 41.2049 19.0039L41.3691 18.8055L41.601 18.357L41.7075 18.1945L42.3134 17.1927C42.5235 16.8378 42.6734 16.4886 42.8836 16.1333L43.1515 15.7425C43.2797 15.4864 43.3743 15.2034 43.5357 14.9747C44.4742 13.3018 45.3164 11.577 46.1554 9.82202C46.2045 9.69558 46.2864 9.59639 46.3688 9.49719C46.3626 9.43683 46.3598 9.40664 46.3844 9.34343L46.6465 8.89206L46.6867 8.67508L47.3486 7.30246L47.6235 6.6672C47.6784 6.60108 47.6727 6.54072 47.6968 6.4775L48.0483 5.68268C48.1216 5.49298 48.2007 5.3636 48.2466 5.20694L48.2929 5.05032C48.29 5.02014 48.3473 4.9842 48.3748 4.95112L48.3875 4.76717C48.4395 4.67087 48.5186 4.54153 48.5403 4.44809C48.562 4.35469 48.5558 4.29433 48.6107 4.22821L48.7631 3.90913C48.7603 3.87895 48.7545 3.81863 48.782 3.78555L48.861 3.65617L49.3084 2.27363C49.3301 2.18023 49.3243 2.11991 49.3186 2.05954L49.4595 1.61978C49.5054 1.46312 49.6103 0.965899 49.5754 0.603855C49.5668 0.513313 49.525 0.39553 49.489 0.338069C49.4136 0.193006 49.2236 0.119822 49.0937 0.0408787C48.997 -0.0107835 48.9065 -0.00208448 48.8156 0.00657354C48.4223 0.0441869 48.0663 0.474025 47.9025 0.672425C47.0816 1.66438 46.5228 2.8444 45.9313 3.99714L44.8605 6.20052L44.8175 6.38733C44.6647 6.70641 44.5152 7.05567 44.3595 7.34457C44.2804 7.47395 44.2948 7.62481 44.2157 7.75419C44.0388 8.13649 43.8675 8.57915 43.6631 8.99453C43.5841 9.12391 43.5955 9.24459 43.5193 9.40416C43.2903 9.88276 43.1007 10.449 42.8746 10.9578C42.7955 11.0872 42.8098 11.238 42.7337 11.3976C42.5567 11.7799 42.4125 12.1895 42.2687 12.5991L42.0917 12.9814L42.0487 13.1682L41.9664 13.2674L41.9783 13.3881L41.8718 13.5505C41.8746 13.5807 41.8804 13.641 41.8529 13.6741C41.5076 14.5291 41.1926 15.3815 40.9136 16.2914C40.889 16.3547 40.8313 16.3906 40.8043 16.4237C40.5925 17.0832 40.4085 17.7097 40.164 18.3419C40.1365 18.375 40.1423 18.4354 40.1451 18.4657L40.0386 18.6282C40.0444 18.6886 40.0505 18.7487 40.0231 18.7818C40.0259 18.812 39.9682 18.8479 39.9436 18.9112C39.9497 18.9717 39.9555 19.0321 39.9309 19.095L39.8518 19.2245C39.8547 19.2547 39.8604 19.3151 39.8359 19.3784C39.8387 19.4087 39.7843 19.4744 39.7568 19.5075L39.7683 19.6284L39.6618 19.7909L39.6491 19.9747L39.433 20.2696C39.3812 20.3655 39.3625 20.4893 39.1838 20.5366C38.8795 20.2308 38.4355 20.0605 37.9671 19.9526L37.7552 19.9731L37.3862 19.9473L37.1773 19.998L36.8746 20.0266C36.6686 20.1074 36.4352 20.221 36.2623 20.3288C36.1715 20.3378 36.1139 20.3737 36.0563 20.4096C35.6802 20.6281 35.3706 20.9013 35.0609 21.1746C34.9788 21.2738 34.927 21.3702 34.842 21.4392C34.6749 21.6071 34.5381 21.7725 34.4071 21.9983L34.2645 22.1033C34.2126 22.1996 34.191 22.2928 34.1363 22.3589C34.1119 22.4222 34.024 22.461 33.9966 22.4941C33.6065 23.2014 33.2134 23.8786 32.9863 24.6917L32.8553 24.9175C32.7446 25.3545 32.621 25.9753 32.6761 26.5482C32.7023 26.8198 32.7586 27.0886 32.8726 27.3213C32.9779 27.4635 33.1077 27.5423 33.2677 27.6187C33.3946 27.6673 33.4667 27.782 33.5907 27.8008L33.863 27.7747L34.1988 27.773L34.402 27.6624C34.4596 27.6264 34.5231 27.6509 34.5778 27.5848C34.6383 27.579 34.6627 27.5157 34.693 27.5129L34.8991 27.432C35.324 27.0869 35.6826 26.6875 36.0744 26.3151L36.1565 26.2158C36.2415 26.1468 36.3567 26.0749 36.4085 25.9785L36.4604 25.8822C36.6001 25.747 36.7945 25.5456 36.8982 25.3533L37.1474 25.0858L37.5793 24.4965C37.6312 24.4001 37.7191 24.3613 37.7709 24.2649C37.9292 24.0064 38.1237 23.805 38.2518 23.549C38.3036 23.4526 38.3915 23.4138 38.4433 23.3174L38.5313 23.2786C38.5184 23.4628 38.4939 23.5261 38.445 23.6523L38.4293 23.8063L38.3472 23.9055L38.3343 24.0893L38.2522 24.1885L38.2667 24.3392C38.2422 24.4025 38.1846 24.4385 38.1875 24.4687L38.1473 24.6856C38.1502 24.7158 38.0926 24.7517 38.0955 24.7819L38.0582 25.029C38.0611 25.0592 38.0035 25.0952 37.9761 25.1283L37.9964 25.3394C37.969 25.3725 37.9114 25.4084 37.9143 25.4386C37.8898 25.5019 37.8927 25.5322 37.8986 25.5926L37.792 25.7551C37.7978 25.8152 37.8036 25.8756 37.7792 25.9389C37.7821 25.9691 37.7244 26.0051 37.7273 26.0353C37.7029 26.0986 37.7116 26.1889 37.7174 26.2493C37.6929 26.3126 37.6382 26.3788 37.6411 26.409C37.6166 26.4719 37.6224 26.5323 37.6282 26.5928C37.6009 26.6258 37.5462 26.692 37.5491 26.7222L37.5362 26.906L37.4297 27.0685C37.4355 27.129 37.4442 27.2192 37.4197 27.2825L37.3434 27.4422C37.3492 27.5023 37.355 27.5627 37.3306 27.626C37.3335 27.6562 37.2787 27.7224 37.2514 27.7555L37.2659 27.9062L37.1896 28.0659C37.168 28.1594 37.1738 28.2194 37.1826 28.3101C37.1581 28.3734 37.1005 28.4093 37.1034 28.4395C37.0789 28.5028 37.0847 28.5629 37.0905 28.6233L36.9869 28.8161C36.9926 28.8765 37.0014 28.9668 36.9769 29.0301C36.9827 29.0905 36.9251 29.1265 36.8977 29.1595C36.9064 29.2498 36.9151 29.3405 36.8936 29.434C36.7986 29.717 36.7426 30.0878 36.6506 30.4011L36.6494 30.7057L36.5731 30.8654C36.5818 30.9557 36.5905 31.0463 36.5689 31.1399C36.5013 31.3898 36.4814 31.8178 36.5191 32.2103C36.5366 32.3912 36.554 32.5721 36.6261 32.6873L36.8612 32.9082C36.9275 32.9629 36.9938 33.0173 37.0875 33.0389L37.2691 33.0213ZM41.1045 17.6432L41.0742 17.646C41.0627 17.5255 41.1291 17.5799 41.1537 17.5166L41.1361 17.3356L41.2151 17.2062L41.234 17.0828C41.2585 17.0195 41.3159 16.9836 41.3102 16.9231L41.3532 16.7365C41.3503 16.7063 41.4081 16.6704 41.4355 16.6373C41.4269 16.5466 41.424 16.5164 41.4482 16.4531L41.5305 16.3543C41.6497 16.0075 41.739 15.6641 41.8914 15.3451L41.9377 15.1887C41.959 15.0952 42.0381 14.9657 42.0901 14.8693L42.1028 14.6855C42.1303 14.6525 42.1606 14.6496 42.1577 14.6194C42.2642 14.4568 42.2769 14.2731 42.3838 14.1106L42.424 13.8936L42.5518 13.6378C42.5763 13.5745 42.5677 13.484 42.6222 13.4179C42.6194 13.3877 42.6771 13.3517 42.7046 13.3187L42.6931 13.198C42.7173 13.1347 42.775 13.0988 42.7722 13.0686C42.7996 13.0355 42.7967 13.0054 42.7906 12.945L42.9708 12.5929L43.0167 12.4363C43.1449 12.1804 43.24 11.8973 43.3403 11.6745L43.5116 11.2319C43.555 11.045 43.6889 10.8495 43.7623 10.6598C43.8659 10.4672 43.906 10.2502 44.0097 10.0576C44.217 9.67239 44.3579 9.23263 44.5651 8.84743L44.6356 8.62755L44.84 8.21213C44.9191 8.08279 44.935 7.92902 45.0141 7.79964L45.3009 7.28506C45.3525 7.18876 45.341 7.06808 45.3926 6.97178C45.7769 6.20424 46.1885 5.40366 46.6064 4.6634C46.6551 4.53692 46.6768 4.44352 46.7559 4.31418L47.8042 2.50878C47.8312 2.47574 47.8586 2.44266 47.889 2.43976L48.2027 1.89214C48.2851 1.79294 48.3973 1.69084 48.4461 1.56436L48.5067 1.5586L48.5456 1.64621C48.5513 1.70657 48.4997 1.80287 48.4751 1.86609C48.435 2.08311 48.419 2.23683 48.3457 2.42657C48.3514 2.48689 48.297 2.55305 48.2724 2.61627L47.9991 3.58633C47.9717 3.61937 47.9172 3.68553 47.923 3.74586C47.7329 4.3121 47.5404 4.8482 47.3171 5.38716C47.2712 5.54378 47.1618 5.67606 47.1156 5.83268C46.9992 6.20922 46.8223 6.59156 46.6453 6.97386C46.5629 7.07306 46.5777 7.22393 46.5285 7.35041C46.4982 7.35331 46.4712 7.38635 46.4437 7.41943L46.327 7.79597L46.1414 8.08777L46.0956 8.24439L45.8391 8.75607C45.6564 9.07805 45.5671 9.42151 45.3844 9.74349C45.1829 10.1891 44.9207 10.6404 44.6893 11.0888L44.5697 11.4352L43.0454 14.3213L42.8594 14.6133L42.707 14.9322C42.3658 15.513 41.9971 16.1268 41.6862 16.7047C41.61 16.8639 41.5006 16.9963 41.4212 17.1257C41.3696 17.2221 41.3478 17.3156 41.2659 17.4145C41.2385 17.4475 41.1508 17.4867 41.1537 17.5166L41.1045 17.6432ZM34.1072 26.5029L34.0438 26.4784L34.002 26.3608C33.9903 26.2403 34.0061 26.0864 34.0305 26.0231L34.383 24.9236C34.4837 24.7011 34.5513 24.4507 34.6852 24.2555L35.1114 23.6057C35.48 22.9919 35.8817 22.4055 36.4795 21.9526C36.6798 21.8117 36.9103 21.6675 37.174 21.5511C37.2316 21.5152 37.3555 21.5335 37.4102 21.4678C37.8974 21.4515 38.0935 21.585 38.3832 21.7398C38.3977 21.8909 38.2522 21.9656 38.2033 22.0922L37.7713 22.6815C37.6921 22.811 37.5769 22.8829 37.4977 23.0123C37.3941 23.2047 37.1967 23.3758 37.096 23.5988C37.0384 23.6347 36.9807 23.6707 36.926 23.7368C36.8195 23.899 36.7129 24.0615 36.5429 24.1996C36.4306 24.3017 36.3845 24.4585 36.2722 24.5606L35.9928 24.8309L35.8041 25.0923C35.5794 25.2965 35.385 25.4978 35.13 25.7049L34.9658 25.9034L34.4256 26.3204C34.3104 26.3922 34.1893 26.4037 34.1072 26.5029ZM46.3278 17.9662L46.5367 17.9156C46.8034 17.8294 47.0713 17.4381 47.0336 17.0461C47.0246 16.9554 46.9857 16.868 46.9468 16.7802C46.7637 16.4629 46.4736 16.3077 45.9895 16.3543C45.9047 16.4233 45.7502 16.4073 45.6654 16.4764C45.5229 16.5813 45.3426 16.9338 45.2996 17.1204L45.2869 17.3042L45.3705 17.5398C45.4848 17.7726 45.9346 18.0038 46.3278 17.9662ZM44.1686 26.6377C44.3501 26.6201 44.523 26.5123 44.6385 26.4404C44.8687 26.2967 45.0747 26.2158 45.2419 26.0476L46.3049 25.0327C46.4171 24.9306 46.4937 24.7709 46.6334 24.6357C46.7731 24.5005 46.8767 24.3082 47.0467 24.1702C47.2712 23.966 47.5449 23.6352 47.7308 23.3436C47.8128 23.2443 47.9553 23.1394 48.0344 23.0099L48.494 22.3875C48.7676 22.0567 49.0744 21.7533 49.2846 21.3984C49.3391 21.3322 49.3968 21.2963 49.4214 21.233L49.4587 20.9859C49.4472 20.865 49.4079 20.7776 49.3751 20.7502C49.2727 20.6383 49.0794 20.535 48.8979 20.5522C48.807 20.5611 48.7492 20.5971 48.6644 20.6661C48.5493 20.738 48.4756 20.9275 48.3965 21.0569C48.29 21.2195 48.1503 21.3547 48.0135 21.5197C47.7181 21.944 47.39 22.3405 47.034 22.7706L46.402 23.5008L46.2406 23.7295C46.0132 23.9035 45.8215 24.135 45.6269 24.336L45.545 24.4352C45.2628 24.6753 45.0137 24.9428 44.7007 25.1858C44.5582 25.2908 44.3521 25.3717 44.2124 25.5068L44.149 25.4823C44.1158 25.455 44.11 25.3945 44.1043 25.3345L44.1141 25.1201C44.1703 24.7493 44.1961 24.3817 44.285 24.0382L44.7052 22.6885C44.7237 22.5652 44.833 22.4328 44.8519 22.3091C44.9711 21.9628 45.0936 21.6467 45.2492 21.3579C45.3254 21.1982 45.341 21.0443 45.4172 20.885C45.5425 20.5987 45.665 20.2826 45.8231 20.0241C45.8477 19.9608 45.8391 19.8701 45.8936 19.804C45.9669 19.6145 46.0677 19.3915 46.0779 19.1775L46.0722 19.1171C46.0661 19.057 46.0271 18.9692 45.9911 18.9116C45.8772 18.6793 45.7113 18.5429 45.4086 18.5714L45.3181 18.5804C45.2329 18.6494 45.112 18.6609 45.0297 18.7601C44.8871 18.8651 44.8195 19.115 44.7462 19.3049C44.5967 19.6541 44.4164 20.0061 44.3001 20.3827L44.3087 20.4733L43.9753 21.449C43.8098 21.9521 43.6775 22.4822 43.5423 22.9825C43.4042 23.4526 43.3567 23.9137 43.2187 24.3837L43.199 24.8117C43.1589 25.029 43.097 25.3394 43.1232 25.611L43.233 26.1178C43.4464 26.4327 43.6123 26.5691 44.0142 26.6218L44.1686 26.6377ZM48.7361 26.81C48.8872 26.7953 49.0023 26.7235 49.0904 26.6847C49.1482 26.6487 49.2084 26.643 49.2387 26.6401C49.53 26.4903 49.7516 26.2562 49.9793 26.0823C50.8781 25.2655 51.4999 24.1097 52.0673 23.0201C52.2442 22.6378 52.388 22.2282 52.5678 21.8762C52.6891 21.8648 52.8403 21.85 52.9644 21.8688L53.27 21.8701L53.4789 21.8194C53.8721 21.7818 54.2928 21.7112 54.6144 21.5589L54.8839 21.5025C55.0294 21.4278 55.2784 21.1603 55.2551 20.9189L55.2465 20.8287C55.1658 20.6232 54.922 20.3112 54.589 20.3431L54.5587 20.3459C54.3498 20.3966 54.2072 20.5015 54.0286 20.5489C53.8529 20.6269 53.5588 20.7462 53.256 20.7751C53.1352 20.7866 53.0111 20.7682 52.9177 20.7466C52.9058 20.6261 52.9849 20.4966 53.0037 20.3729C53.093 20.0294 53.1516 19.6888 53.1803 19.3511C53.202 19.258 53.1962 19.1975 53.1872 19.1068C53.2278 18.89 53.2376 18.676 53.22 18.4947C53.1565 17.831 52.7682 17.2895 52.3155 17.0285C52.1557 16.9521 52.0677 16.9914 51.9104 16.9452C51.7563 16.9297 51.6294 16.8807 51.4176 16.9011C51.275 17.0061 51.0301 16.9991 50.8846 17.0738C50.7663 17.1155 50.7118 17.1817 50.6294 17.2809C50.5717 17.3168 50.4537 17.3585 50.3386 17.4304C50.2534 17.4994 50.2075 17.6562 50.1223 17.7252C50.0981 17.7885 50.0101 17.8273 49.9556 17.8935C49.9036 17.9899 49.8847 18.1132 49.8388 18.27C49.7843 18.3362 49.7323 18.4322 49.7106 18.5257C49.6459 18.8059 49.6418 19.0803 49.668 19.3519C49.7377 20.076 50.074 20.7139 50.5684 21.0929L50.704 21.2321L51.1595 21.5237C51.3197 21.5997 51.4741 21.6152 51.5732 21.6973C51.5548 21.8206 51.5056 21.9472 51.454 22.0436C51.3258 22.2993 51.2582 22.5496 51.1546 22.742C51.13 22.8053 51.0727 22.8412 51.0755 22.8715C51.0297 23.0283 51.0079 23.1214 50.8957 23.2235C50.7458 23.5727 50.5024 23.9006 50.3226 24.2526C50.2161 24.4152 49.9883 24.5892 49.8818 24.7517C49.7782 24.9441 49.6168 25.1728 49.4468 25.3108C49.3346 25.4129 49.1703 25.6114 49.0277 25.7163C48.9126 25.7882 48.7611 25.8025 48.6791 25.9018C48.5882 25.9107 48.5251 25.8862 48.4616 25.8617L48.3994 25.5326C48.3559 25.0801 48.4334 24.6161 48.5227 24.2727L48.5571 23.9954L48.836 23.0855C48.8602 23.0222 48.918 22.9862 48.9151 22.956C49.049 22.7608 49.0892 22.5435 49.1625 22.354L49.4493 21.8394C49.5468 21.5862 49.8089 21.1349 49.7741 20.7731C49.7598 20.622 49.6848 20.477 49.5246 20.4011C49.4251 20.319 49.301 20.3006 49.2104 20.3092C48.8168 20.3467 48.5665 20.9189 48.4686 21.1717L48.3248 21.5813C47.9967 22.6174 47.7628 23.6752 47.5731 24.8808L47.6022 25.1826L47.585 25.6412C47.6256 26.0635 47.8509 26.4988 48.0471 26.6324C48.2068 26.7083 48.3641 26.7541 48.5817 26.7941L48.7361 26.81ZM51.8928 20.5705C51.7383 20.5546 51.6965 20.437 51.5696 20.3884C51.3103 20.2303 51.0968 19.9159 51.062 19.5536C51.0473 19.4029 51.0632 19.249 51.1366 19.0595C51.1824 18.9026 51.3467 18.7042 51.4618 18.6323C51.5499 18.5935 51.6404 18.5849 51.6621 18.4914L51.7834 18.48C51.9489 18.6164 52.0054 18.8851 52.0345 19.1869C52.0837 19.6998 52.0206 20.3145 51.8928 20.5705Z" fill="#1C1D21"/>
<path d="M42.5386 46.5724C41.7423 46.2416 40.9459 45.9769 40.1496 45.6461C39.4859 45.3815 38.8886 45.1168 38.1586 44.8522C34.6415 43.4628 33.9779 42.4704 33.7788 41.8088C33.7124 41.4119 33.8451 40.8826 34.1769 40.4856C34.7078 39.9563 35.4378 39.7579 36.2341 39.824C37.495 39.9563 38.0923 40.6179 38.3577 41.2795C38.4904 41.5442 38.6895 41.6765 38.955 41.6765L48.4448 39.7579C48.7766 39.6917 48.9757 39.3609 48.9093 39.0963C48.3784 36.7145 46.8521 35.1928 46.3212 34.7297C45.5912 34.1342 44.7949 33.5388 43.8658 33.0757C42.0741 32.1494 39.9505 31.4878 37.5614 31.2232C33.646 30.7601 29.8634 31.554 27.0099 33.4065C26.0145 34.0019 25.1518 34.7297 24.4218 35.5898C23.8909 36.1852 21.4355 39.4271 22.1655 43.2644C22.63 45.9108 24.6209 48.2264 27.939 50.145C28.0053 50.2112 28.138 50.2773 28.2044 50.2773L28.2708 50.3435C28.9344 50.6743 29.598 51.0051 30.328 51.3359C31.3234 51.799 32.2525 52.2622 32.9824 52.593L33.0488 52.6591C36.765 54.3793 37.495 54.9747 37.6277 56.1656C37.6941 56.6949 37.5614 57.2242 37.1632 57.555C36.765 57.9519 36.0351 58.3489 34.5751 58.1504C33.9115 58.0843 32.7833 57.6211 32.1197 56.6287C31.987 56.4303 31.7216 56.2979 31.5225 56.3641L21.9001 58.4151C21.5683 58.4812 21.3692 58.8782 21.5019 59.209C22.5637 61.5908 24.09 63.5094 26.1472 64.8988C28.0717 65.9573 30.4607 66.6851 33.1815 67.0159C34.0442 67.1482 34.9069 67.1482 35.7032 67.1482C41.7423 67.1482 46.5866 64.5018 48.7102 60.0691C49.2411 58.7459 49.5729 57.4227 49.6393 56.1656C49.9711 50.6743 44.7949 47.6309 42.5386 46.5724ZM81.0397 58.2166L73.2754 53.7838C73.0763 53.6515 72.7445 53.7177 72.5454 53.9823C70.9528 56.4303 68.6301 57.8196 65.9757 57.8196C63.3212 57.8196 60.9986 56.6287 59.4059 54.7762C58.0786 53.3869 57.2823 51.4682 57.2823 49.4173C57.2823 47.3001 58.0786 45.4476 59.4059 43.9921C60.9986 42.1396 63.3212 41.0149 65.9757 41.0149C68.6301 41.0149 70.9528 42.3381 72.5454 44.8522C72.7445 45.0507 73.0763 45.1168 73.2754 44.9845L76.1953 43.3305L81.1724 40.4856C81.3715 40.3533 81.4379 40.0887 81.3052 39.8902C80.9734 39.3609 80.6415 38.8978 80.3097 38.4346C79.9779 37.9715 79.5798 37.5746 79.1816 37.1114C79.1816 37.1114 79.1816 37.0453 79.1152 37.0453C78.9825 36.8468 78.7834 36.6483 78.5843 36.516C78.5843 36.4498 78.518 36.4498 78.518 36.3837C78.3189 36.2514 78.1862 36.119 77.9871 35.9206C77.9207 35.8544 77.788 35.7882 77.7216 35.6559C77.6553 35.5898 77.5889 35.5236 77.5226 35.4574C74.8017 33.208 71.4837 31.7525 67.9665 31.2232C67.8338 31.2232 67.7011 31.2232 67.5683 31.2232C67.4356 31.2232 67.3029 31.157 67.1702 31.157C66.9047 31.157 66.7056 31.157 66.4402 31.0909C66.3738 31.0909 66.3075 31.0909 66.2411 31.0909C65.9757 31.0909 65.6439 31.0909 65.3784 31.0909C55.0924 31.0909 46.7972 39.2947 46.7972 49.4173C46.7972 59.4736 55.0924 67.6775 65.3784 67.6775C65.6439 67.6775 65.9757 67.6775 66.2411 67.6775C66.3075 67.6775 66.3738 67.6775 66.4402 67.6775C66.7056 67.6775 66.9047 67.6113 67.1702 67.6113C67.3029 67.6113 67.4356 67.6113 67.5683 67.5452C67.7011 67.5452 67.8338 67.5452 67.9665 67.5452C71.4837 67.0159 74.8017 65.5604 77.5226 63.3109C77.5889 63.2448 77.6553 63.1786 77.7216 63.1124C77.788 63.0463 77.9207 62.914 77.9871 62.8478C78.1862 62.7155 78.3189 62.517 78.518 62.3847C78.518 62.3185 78.5843 62.3185 78.5843 62.3185C78.7834 62.12 79.0489 61.8554 79.1816 61.7231C79.1816 61.6569 79.1816 61.6569 79.1816 61.6569C79.5798 61.26 79.9779 60.7968 80.3097 60.3337C80.5088 60.0691 80.907 59.4736 81.2388 59.0105C81.3715 58.7459 81.3052 58.4151 81.0397 58.2166ZM98.1941 31.6201C95.8715 31.6863 93.1507 31.9509 90.828 33.4065C90.6289 33.5388 90.3635 33.4065 90.3635 33.208V32.2156C90.3635 31.8848 90.0981 31.6201 89.8326 31.6201H80.0111C79.6793 31.6201 79.4802 31.8848 79.4802 32.2156V66.0897C79.4802 66.3543 79.6793 66.6189 80.0111 66.6189H90.4962C90.7617 66.6189 91.0271 66.3543 91.0271 66.0897V46.3739C91.0271 45.0507 91.0271 43.926 91.6244 42.7351C91.8234 42.2719 92.5534 41.2795 93.8143 41.0149C94.9424 40.7503 96.8669 40.8826 97.796 40.9487C98.1278 40.9487 98.3932 40.7503 98.3932 40.4195L98.725 32.2156C98.7914 31.8848 98.526 31.6201 98.1941 31.6201ZM127.869 31.6201H117.45C117.118 31.6201 116.853 31.8848 116.853 32.2156V51.3359C116.853 52.6591 116.853 54.3131 116.322 55.504C115.791 56.6287 114.265 57.3565 112.207 57.3565C111.146 57.3565 110.283 57.0919 109.619 56.5626C109.221 56.2318 108.889 55.8348 108.624 55.3055C108.093 54.1146 108.027 52.6591 108.027 51.3359V32.2156C108.027 31.8848 107.761 31.6201 107.496 31.6201H97.0107C96.6789 31.6201 96.4798 31.8848 96.4798 32.2156V51.8652C96.4798 57.0257 97.0771 59.9368 100.594 63.5094H100.661C100.86 63.7741 101.125 64.0387 101.391 64.2372C101.457 64.3033 105.173 67.1482 110.018 67.1482C112.207 67.1482 114.663 66.5528 117.118 64.8988C117.251 64.7665 117.516 64.8988 117.516 65.0973V66.0897C117.516 66.3543 117.782 66.6189 118.114 66.6189H127.869C128.201 66.6189 128.466 66.3543 128.466 66.0897V32.2156C128.466 31.8848 128.201 31.6201 127.869 31.6201ZM144.896 29.4368H146.09C146.356 29.4368 146.621 29.2384 146.621 28.9737L147.418 21.233C147.418 20.9022 147.152 20.6375 146.82 20.6375H141.312C141.246 20.6375 140.781 20.5714 139.985 20.6375C137.264 20.7698 130.894 21.9607 130.894 29.7015V33.8696C130.894 34.1342 130.628 34.3989 130.363 34.3989H126.713C126.381 34.3989 126.182 34.6635 126.182 34.9282V43.1982C126.182 43.529 126.381 43.7936 126.713 43.7936H130.363C130.628 43.7936 130.894 43.9921 130.894 44.3229V64.171V66.0897C130.894 66.3543 131.159 66.6189 131.491 66.6189H141.246C141.578 66.6189 141.843 66.3543 141.843 66.0897V44.3229C141.843 43.9921 142.109 43.7936 142.374 43.7936H146.024C146.356 43.7936 146.621 43.529 146.621 43.1982V34.9282C146.621 34.6635 146.356 34.3989 146.024 34.3989H142.374C142.109 34.3989 141.843 34.1342 141.843 33.8696C141.843 32.6787 141.843 31.0909 142.706 30.2308C143.237 29.7015 143.967 29.4368 144.896 29.4368ZM163.516 29.4368H164.71C164.976 29.4368 165.241 29.2384 165.241 28.9737L166.038 21.233C166.038 20.9022 165.772 20.6375 165.44 20.6375H159.932C159.866 20.6375 159.402 20.5714 158.605 20.6375C155.884 20.7698 149.514 21.9607 149.514 29.7015V33.8696C149.514 34.1342 149.248 34.3989 148.983 34.3989H145.333C145.001 34.3989 144.802 34.6635 144.802 34.9282V43.1982C144.802 43.529 145.001 43.7936 145.333 43.7936H148.983C149.248 43.7936 149.514 43.9921 149.514 44.3229V64.171V66.0897C149.514 66.3543 149.779 66.6189 150.111 66.6189H159.866C160.198 66.6189 160.463 66.3543 160.463 66.0897V44.3229C160.463 43.9921 160.729 43.7936 160.994 43.7936H164.644C164.976 43.7936 165.241 43.529 165.241 43.1982V34.9282C165.241 34.6635 164.976 34.3989 164.644 34.3989H160.994C160.729 34.3989 160.463 34.1342 160.463 33.8696C160.463 32.6787 160.463 31.0909 161.326 30.2308C161.857 29.7015 162.587 29.4368 163.516 29.4368Z" fill="#1C1D21"/>
</svg>
